Motion_pl09
version=1
nRows=10
nColumns=43
inDegrees=yes
endheader
time	pelvis_tilt	pelvis_list	pelvis_rotation	pelvis_tx	pelvis_ty	pelvis_tz	hip_flexion_r	hip_adduction_r	hip_rotation_r	knee_angle_r	ankle_angle_r	subtalar_angle_r	mtp_angle_r	hip_flexion_l	hip_adduction_l	hip_rotation_l	knee_angle_l	ankle_angle_l	subtalar_angle_l	mtp_angle_l	lumbar_extension	lumbar_bending	lumbar_rotation	neck_flexion	neck_lateral_bending	neck_rotation	arm_flex_r	arm_add_r	arm_rot_r	elbow_flex_r	pro_sup_r	wrist_flex_r	wrist_dev_r	hand_finger_flex_r	arm_flex_l	arm_add_l	arm_rot_l	elbow_flex_l	pro_sup_l	wrist_flex_l	wrist_dev_l	hand_finger_flex_l
      0.84750000	     -0.66808011	    -15.57564014	     90.48743922	     -0.01227697	      1.90453445	      1.52531348	     45.83007567	     -8.32402603	      4.07570233	   -107.57649403	    -17.17058320	     -4.90592968	      9.79301048	     48.34872563	     -1.90480544	      2.85378701	   -111.26374990	    -15.67661377	    -13.95812011	     12.51793652	    -44.18734987	     -1.20270062	      2.17152875	     21.45734768	      1.63951084	     -4.67755937	    136.04676230	     -9.17307218	     38.58769141	     50.69029980	     69.06721134	    -31.45564592	     -2.40394440	     26.25588246	    134.35395576	     -2.09093190	     25.18232144	     57.13910390	    108.63464766	    -26.93720965	     13.65555352	     64.41258772
      0.85000000	     -0.67599617	    -15.38038925	     90.44704196	     -0.01205035	      1.90540295	      1.52091603	     45.78835673	     -8.26519084	      4.09307734	   -107.43429188	    -17.67544229	     -4.61498866	     10.03129445	     48.35888513	     -1.93536856	      2.77916998	   -111.28197919	    -16.24762656	    -13.99947956	     12.67397382	    -44.31752225	     -1.26945246	      2.18189879	     21.24743260	      1.67781199	     -4.64164879	    135.97645315	     -9.35234550	     38.89740175	     50.70401673	     69.17775926	    -31.35377097	     -2.36621852	     26.24590597	    134.16799087	     -2.14039297	     25.28922175	     57.17150585	    108.63924875	    -26.90041856	     13.63435148	     64.31955523
      0.85250000	     -0.67557029	    -15.26678440	     90.44686987	     -0.01194794	      1.90614036	      1.51687384	     45.88328297	     -8.21923895	      4.05111873	   -107.38460528	    -17.67194559	     -4.60574569	     10.03854703	     48.45814966	     -1.90409995	      2.74487146	   -111.29715736	    -16.24789802	    -14.00252519	     12.67900582	    -44.43424531	     -1.28640065	      2.16278874	     21.25692722	      1.67290975	     -4.64170222	    135.92670783	     -9.38782721	     38.91455439	     50.67558447	     69.17978500	    -31.35191032	     -2.35789858	     26.24595690	    134.08537206	     -2.16017438	     25.30578835	     57.14091012	    108.63892063	    -26.89618394	     13.63962970	     64.31850055
      0.85500000	     -0.67729896	    -14.99173802	     90.29035389	     -0.01172381	      1.90692093	      1.51243378	     45.77227347	     -8.08790581	      4.18214976	   -107.25223781	    -17.89490120	     -3.91767950	     11.26442293	     48.40881208	     -2.05071134	      2.43597423	   -111.37972879	    -17.01488307	    -14.93865415	     13.31889124	    -44.63278485	     -1.41419795	      2.39265073	     21.08047142	      1.57584919	     -4.67906895	    136.05128661	     -9.83135146	     39.83225556	     50.66646234	     69.65278554	    -31.09045990	     -2.35609284	     26.12301244	    133.81237930	     -2.09753738	     25.32134627	     57.09473206	    108.60667394	    -26.99453020	     13.37620048	     63.74317817
      0.85750000	     -0.67449731	    -14.86447168	     90.28738641	     -0.01163578	      1.90768277	      1.50844100	     45.89452506	     -8.04194593	      4.13647127	   -107.20166859	    -17.87851955	     -3.91479194	     11.27218564	     48.51979207	     -2.01355814	      2.40558486	   -111.39681874	    -17.00219212	    -14.94030975	     13.32411236	    -44.78129222	     -1.43058550	      2.37164163	     21.08568518	      1.57720404	     -4.68210000	    135.98978186	     -9.86687942	     39.84742423	     50.63902754	     69.65211520	    -31.08879220	     -2.34690003	     26.12358026	    133.71850958	     -2.12391214	     25.33870974	     57.06986580	    108.60597387	    -26.98914515	     13.38068055	     63.74387006
      0.86000000	     -0.67238829	    -14.71442022	     90.25781629	     -0.01142531	      1.90810777	      1.50392649	     45.88528573	     -8.01064928	      4.01258349	   -107.15371649	    -17.48616289	     -3.91713514	     11.54073624	     48.58127491	     -2.05129657	      2.26483661	   -111.56498395	    -16.72209781	    -15.09353098	     13.44955468	    -44.81698123	     -1.50230857	      2.28483344	     20.79618563	      1.78653744	     -4.72206185	    135.77932892	    -10.09648483	     40.16863431	     50.75141886	     69.74381864	    -30.94593887	     -2.31081522	     26.14906439	    133.30972920	     -2.30829487	     25.47807033	     57.39625426	    108.60032343	    -26.94627931	     13.26125917	     63.69437704
      0.86250000	     -0.66400893	    -14.57295563	     90.25597798	     -0.01138862	      1.90885061	      1.50002163	     46.02460613	     -7.96087935	      3.96778155	   -107.10709328	    -17.45948902	     -3.91406622	     11.54942825	     48.71342794	     -2.01055773	      2.22686524	   -111.58099795	    -16.69979330	    -15.09937930	     13.45431143	    -44.99451774	     -1.51221401	      2.26657951	     20.80265580	      1.77976979	     -4.72077008	    135.70980571	    -10.14112270	     40.18668341	     50.72101556	     69.74540580	    -30.94405111	     -2.30201416	     26.14972575	    133.20929223	     -2.33266825	     25.49751384	     57.35998578	    108.59981153	    -26.94147560	     13.26624099	     63.69386731
      0.86500000	     -0.63481509	    -14.47025388	     90.23249662	     -0.01125417	      1.90895115	      1.49569696	     46.08832392	     -7.91986205	      3.79634340	   -107.14935274	    -16.54424933	     -3.97234393	     11.86565091	     48.84361296	     -2.06789361	      2.03285458	   -111.82797190	    -15.93369820	    -15.49895702	     13.55638455	    -44.99296087	     -1.55027722	      2.28010997	     20.57970834	      1.83154238	     -4.67143662	    135.54370559	    -10.47055137	     40.62365586	     50.88585541	     69.94769658	    -30.76654254	     -2.31457551	     26.17779412	    132.83425796	     -2.42816689	     25.58169753	     57.52664730	    108.58337576	    -26.95115673	     13.08286146	     63.59570340
      0.86750000	     -0.62295614	    -14.31845007	     90.23166227	     -0.01122453	      1.90965210	      1.49184438	     46.24335925	     -7.86763181	      3.75316426	   -107.10197187	    -16.51427285	     -3.97000102	     11.87315435	     48.99003253	     -2.02360321	      1.99267339	   -111.84352098	    -15.90845643	    -15.50559032	     13.55952243	    -45.19620830	     -1.55701274	      2.26305545	     20.58723114	      1.82738345	     -4.67187799	    135.46765460	    -10.51810069	     40.64276847	     50.85198394	     69.95008970	    -30.76535896	     -2.30538256	     26.17814450	    132.72196388	     -2.45366413	     25.60164707	     57.48912936	    108.58216269	    -26.94664708	     13.08675119	     63.59542671
      0.87000000	     -0.57982588	    -14.22826631	     90.21655919	     -0.01113556	      1.90960906	      1.48759277	     46.34596693	     -7.81697733	      3.57164713	   -107.16949851	    -15.54489689	     -4.10609734	     12.10021856	     49.16928681	     -2.06893539	      1.79821098	   -112.11478484	    -15.06074815	    -15.95479609	     13.57426843	    -45.20177423	     -1.57793539	      2.29576403	     20.44680759	      1.91969114	     -4.68400476	    135.29948023	    -10.83692053	     41.03705564	     51.00267944	     70.18551015	    -30.63024517	     -2.34163164	     26.18652274	    132.29326029	     -2.52671386	     25.58051954	     57.70499228	    108.52758454	    -26.98984277	     12.82953364	     63.50525993
